<svg xmlns="http://www.w3.org/2000/svg" viewBox="0 0 512 512">
  <defs>
    <linearGradient id="sky" x1="0" y1="0" x2="0" y2="1">
      <stop offset="0" stop-color="#1b2b45"/>
      <stop offset="1" stop-color="#0d1422"/>
    </linearGradient>
  </defs>
  <rect width="512" height="512" fill="url(#sky)"/>
  <circle cx="406" cy="118" r="44" fill="#ffd87a"/>
  <path d="M150 392 L300 138 L450 392 Z" fill="#8a9099"/>
  <path d="M258 248 L300 138 L344 248 L310 232 L282 252 Z" fill="#eef2f7"/>
  <path d="M0 392 Q140 348 280 372 T512 364 L512 512 L0 512 Z" fill="#4f8a3a"/>
  <path d="M0 430 Q160 408 320 424 T512 420 L512 512 L0 512 Z" fill="#3f7a3a"/>
  <rect x="120" y="350" width="18" height="48" rx="3" fill="#5a3a1c"/>
  <path d="M129 268 L172 372 L86 372 Z" fill="#2f6e34"/>
  <path d="M129 304 L162 372 L96 372 Z" fill="#3f7a3a"/>
  <path d="M40 470 q120 -20 240 -6 t200 -2" stroke="#2f8fd6" stroke-width="14" fill="none" stroke-linecap="round" opacity=".85"/>
</svg>
